<?xml version="1.0" encoding="UTF-8" standalone="no"?>
<!-- Created with Inkscape (http://www.inkscape.org/) -->

<svg
   xmlns:dc="http://purl.org/dc/elements/1.1/"
   xmlns:cc="http://creativecommons.org/ns#"
   xmlns:rdf="http://www.w3.org/1999/02/22-rdf-syntax-ns#"
   xmlns:svg="http://www.w3.org/2000/svg"
   xmlns="http://www.w3.org/2000/svg"
   xmlns:sodipodi="http://sodipodi.sourceforge.net/DTD/sodipodi-0.dtd"
   xmlns:inkscape="http://www.inkscape.org/namespaces/inkscape"
   version="1.1"
   id="svg64"
   xml:space="preserve"
   width="1248"
   height="1536"
   viewBox="0 0 1248 1536"
   sodipodi:docname="LOGO GOOD.ai.svg"
   inkscape:version="0.92.2 (unknown)"><metadata
     id="metadata70"><rdf:RDF><cc:Work
         rdf:about=""><dc:format>image/svg+xml</dc:format><dc:type
           rdf:resource="http://purl.org/dc/dcmitype/StillImage" /><dc:title></dc:title></cc:Work></rdf:RDF></metadata><defs
     id="defs68"><clipPath
       clipPathUnits="userSpaceOnUse"
       id="clipPath80"><path
         d="M 0,1152 H 936 V 0 H 0 Z"
         id="path78"
         inkscape:connector-curvature="0" /></clipPath></defs><sodipodi:namedview
     pagecolor="#ffffff"
     bordercolor="#666666"
     borderopacity="1"
     objecttolerance="10"
     gridtolerance="10"
     guidetolerance="10"
     inkscape:pageopacity="0"
     inkscape:pageshadow="2"
     inkscape:window-width="1535"
     inkscape:window-height="876"
     id="namedview66"
     showgrid="false"
     inkscape:zoom="0.47786458"
     inkscape:cx="624"
     inkscape:cy="851.70572"
     inkscape:window-x="65"
     inkscape:window-y="24"
     inkscape:window-maximized="1"
     inkscape:current-layer="g72" /><g
     id="g72"
     inkscape:groupmode="layer"
     inkscape:label="LOGO GOOD"
     transform="matrix(1.3333333,0,0,-1.3333333,0,1536)"><g
       id="g74"><g
         id="g76"
         clip-path="url(#clipPath80)"><g
           id="g82"
           transform="translate(438.1147,954.9048)"><path
             d="m 0,0 h 12.87 c 0.453,-0.073 0.905,-0.181 1.36,-0.216 3.857,-0.281 7.723,-0.486 11.572,-0.837 10.18,-0.929 20.199,-2.752 30.067,-5.354 62.58,-16.503 112.379,-62.88 132.045,-123.034 4.877,-14.917 7.925,-30.184 8.56,-45.867 0.014,-0.352 0.145,-0.699 0.225,-1.044 v -19.383 c -0.08,-0.345 -0.199,-0.69 -0.227,-1.041 -0.308,-3.791 -0.435,-7.607 -0.937,-11.371 -0.674,-5.074 -1.637,-10.109 -2.473,-15.159 h -373.531 c -0.28,1.651 -0.551,3.303 -0.843,4.95 -1.334,7.514 -2.229,15.076 -2.61,22.697 -0.057,1.16 -0.304,2.314 -0.464,3.471 v 12.29 c 0.173,1.386 0.429,2.765 0.502,4.161 0.302,5.863 0.92,11.696 1.815,17.499 2.116,13.714 5.744,27.041 10.93,39.956 26.991,67.219 92.49,114.896 169.352,118.055 C -1.188,-0.201 -0.596,-0.078 0,0"
             style="fill:#de9c38;fill-opacity:1;fill-rule:nonzero;stroke:none"
             id="path84"
             inkscape:connector-curvature="0" /></g><g
           id="g86"
           transform="translate(444.4277,790.3223)"><path
             d="m 0,0 c 0.354,0.165 0.706,0.329 1.059,0.494 -18.383,51.595 -36.766,103.19 -55.361,155.381 -12.256,-3.316 -23.969,-7.691 -34.687,-14.333 C -59.07,93.955 -29.536,46.978 0,0 m -122.826,118.101 c -8.495,-9.904 -16.541,-19.285 -24.623,-28.705 49.195,-30.824 97.43,-61.046 145.666,-91.268 0.239,0.275 0.478,0.552 0.716,0.828 -40.282,39.417 -80.565,78.833 -121.759,119.145 m 253.545,2.028 C 89.435,79.169 48.982,39.039 8.531,-1.091 c 0.23,-0.246 0.461,-0.491 0.692,-0.737 48.72,31.056 97.438,62.112 146.994,93.7 -8.7,9.643 -16.935,18.768 -25.498,28.257 M -1.772,-4.858 c 0.078,0.254 0.159,0.508 0.238,0.763 -55.028,19.101 -110.057,38.203 -166.297,57.727 -3.249,-12.91 -6.27,-24.911 -9.39,-37.306 C -117.893,9.163 -59.833,2.153 -1.772,-4.858 M 175.824,55.043 C 119.147,35.041 63.999,15.578 8.85,-3.886 c 36.73,3.371 73.121,7.718 109.496,12.18 20.062,2.46 40.105,5.096 60.146,7.703 2.441,0.317 5.902,-0.147 5.007,4.032 -2.445,11.398 -4.986,22.776 -7.675,35.014"
             style="fill:#ffd400;fill-opacity:1;fill-rule:nonzero;stroke:none"
             id="path88"
             inkscape:connector-curvature="0" /></g><g
           id="g90"
           transform="translate(443.6543,782.2095)"><path
             d="m 0,0 c -9.636,-2.96 -19.347,-5.711 -28.896,-8.917 -44.683,-15.002 -89.321,-30.133 -133.983,-45.193 -1.397,-0.474 -2.881,-0.702 -5.684,-1.369 -2.708,12.595 -5.363,24.943 -8.094,37.645 9.968,1.204 18.539,2.308 27.125,3.263 20.483,2.279 40.977,4.484 61.465,6.728 28.571,3.129 57.132,6.368 85.723,9.306 5.326,0.548 6.865,2.208 6.237,7.558 -4.171,35.484 -7.889,71.021 -11.939,106.519 -1.826,16.015 -4.077,31.981 -6.13,47.971 -0.322,2.502 -0.608,5.01 -1.008,8.321 12.86,0.727 24.972,1.411 37.964,2.147 C 16.816,117.857 10.975,62.925 5.136,7.993 5.563,7.874 5.988,7.754 6.416,7.635 25.231,60.275 44.047,112.917 63.355,166.945 75.043,162.001 86.412,157.191 97.729,152.404 66.022,100.997 34.921,50.569 3.816,0.142 L 3.925,0.256 C 3.23,-0.62 2.535,-1.496 1.84,-2.372 v -0.001 c -0.665,0.827 -1.329,1.654 -1.994,2.48 z"
             style="fill:#ffd400;fill-opacity:1;fill-rule:evenodd;stroke:none"
             id="path92"
             inkscape:connector-curvature="0" /></g><g
           id="g94"
           transform="translate(620.252,845.3657)"><path
             d="m 0,0 c 2.688,-12.239 5.229,-23.616 7.675,-35.014 0.894,-4.18 -2.567,-3.715 -5.007,-4.032 -20.041,-2.607 -40.084,-5.243 -60.147,-7.704 -36.375,-4.461 -72.765,-8.809 -109.496,-12.18 C -111.825,-39.466 -56.677,-20.003 0,0"
             style="fill:#ffd400;fill-opacity:1;fill-rule:evenodd;stroke:none"
             id="path96"
             inkscape:connector-curvature="0" /></g><g
           id="g98"
           transform="translate(442.6553,785.4639)"><path
             d="m 0,0 c -58.061,7.011 -116.12,14.021 -175.448,21.185 3.12,12.394 6.14,24.395 9.389,37.305 C -109.818,38.967 -54.789,19.865 0.238,0.763 0.159,0.508 0.078,0.254 0,0"
             style="fill:#ffd400;fill-opacity:1;fill-rule:evenodd;stroke:none"
             id="path100"
             inkscape:connector-curvature="0" /></g><g
           id="g102"
           transform="translate(452.0439,782.6484)"><path
             d="m 0,0 c 1.618,0.29 3.284,0.978 4.846,0.812 50.898,-5.395 101.787,-10.872 152.678,-16.336 6.125,-0.656 12.253,-1.305 19.664,-2.094 -3.1,-12.658 -6.038,-24.654 -9.144,-37.34 -10.92,3.588 -20.676,6.768 -30.411,10 C 92.961,-30.12 48.296,-15.264 3.619,-0.449 2.429,-0.054 1.103,-0.038 -0.162,0.153 -0.162,0.15 0,0 0,0"
             style="fill:#ffd400;fill-opacity:1;fill-rule:evenodd;stroke:none"
             id="path104"
             inkscape:connector-curvature="0" /></g><g
           id="g106"
           transform="translate(443.5,782.3169)"><path
             d="m 0,0 c -0.617,-1.302 -0.917,-2.914 -1.898,-3.862 -39.887,-38.532 -79.835,-77.004 -119.78,-115.479 -0.529,-0.512 -1.117,-0.963 -2.636,-2.261 -8.304,9.422 -16.493,18.716 -24.896,28.252 50.498,31.508 99.949,62.361 149.381,93.229 C 0.154,-0.107 0,0 0,0"
             style="fill:#ffd400;fill-opacity:1;fill-rule:evenodd;stroke:none"
             id="path108"
             inkscape:connector-curvature="0" /></g><g
           id="g110"
           transform="translate(575.1465,910.4512)"><path
             d="m 0,0 c 8.563,-9.489 16.798,-18.614 25.498,-28.257 -49.556,-31.588 -98.273,-62.644 -146.994,-93.7 -0.231,0.246 -0.462,0.491 -0.692,0.737 C -81.736,-81.09 -41.284,-40.959 0,0"
             style="fill:#ffd400;fill-opacity:1;fill-rule:evenodd;stroke:none"
             id="path112"
             inkscape:connector-curvature="0" /></g><g
           id="g114"
           transform="translate(321.6016,908.4229)"><path
             d="m 0,0 c 41.194,-40.312 81.478,-79.728 121.759,-119.145 -0.238,-0.276 -0.477,-0.552 -0.716,-0.828 C 72.808,-89.751 24.572,-59.528 -24.623,-28.705 -16.541,-19.285 -8.495,-9.903 0,0"
             style="fill:#ffd400;fill-opacity:1;fill-rule:evenodd;stroke:none"
             id="path116"
             inkscape:connector-curvature="0" /></g><g
           id="g118"
           transform="translate(444.4277,790.3223)"><path
             d="m 0,0 c -29.536,46.978 -59.07,93.955 -88.989,141.542 10.718,6.642 22.431,11.017 34.687,14.333 C -35.707,103.684 -17.324,52.089 1.059,0.494 0.706,0.329 0.354,0.165 0,0"
             style="fill:#ffd400;fill-opacity:1;fill-rule:evenodd;stroke:none"
             id="path120"
             inkscape:connector-curvature="0" /></g><g
           id="g122"
           transform="translate(603.2021,784.1978)"><path
             d="m 0,0 c -54.928,26.86 -118.718,-10.171 -173.876,-15.599 -27.8,-2.736 -62.778,0.788 -90.573,4.436 -29.655,3.892 -57.5,31.179 -88.585,18.546 -33.13,-13.465 -14.431,-52.792 10.534,-66.146 9.104,-4.87 21.126,-4.346 32.253,-5.084 45.341,-3.007 86.026,1.448 131.061,1.668 42.215,0.207 84.966,4.854 127.154,2.171 11.061,-0.703 29.348,-8.471 38.196,-7.944 31.022,1.849 15.571,38.951 16.058,63.508"
             style="fill:#de9c38;fill-opacity:1;fill-rule:evenodd;stroke:none"
             id="path124"
             inkscape:connector-curvature="0" /></g><g
           id="g126"
           transform="translate(438.1147,954.9048)"><path
             d="m 0,0 h 12.87 c 0.453,-0.073 0.905,-0.181 1.36,-0.216 3.857,-0.281 7.723,-0.486 11.572,-0.837 10.18,-0.929 20.199,-2.752 30.067,-5.354 62.58,-16.503 112.379,-62.88 132.045,-123.034 4.877,-14.917 7.925,-30.184 8.56,-45.867 0.014,-0.352 0.145,-0.699 0.225,-1.044 v -19.383 c -0.08,-0.345 -0.199,-0.69 -0.227,-1.041 -0.308,-3.791 -0.435,-7.607 -0.937,-11.371 -0.674,-5.074 -1.637,-10.109 -2.473,-15.159 h -373.531 c -0.28,1.651 -0.551,3.303 -0.843,4.95 -1.334,7.514 -2.229,15.076 -2.61,22.697 -0.057,1.16 -0.304,2.314 -0.464,3.471 v 12.29 c 0.173,1.386 0.429,2.765 0.502,4.161 0.302,5.863 0.92,11.696 1.815,17.499 2.116,13.714 5.744,27.041 10.93,39.956 26.991,67.219 92.49,114.896 169.352,118.055 C -1.188,-0.201 -0.596,-0.078 0,0 Z"
             style="fill:none;stroke:#a33b15;stroke-width:20;stroke-linecap:butt;stroke-linejoin:miter;stroke-miterlimit:10;stroke-dasharray:none;stroke-opacity:1"
             id="path128"
             inkscape:connector-curvature="0" /></g><g
           id="g130"
           transform="translate(150.3501,762.9585)"><path
             d="m 0,0 c 1.114,-12.82 3.67,-24.934 9.368,-35.171 9.005,-16.177 20.001,-24.827 34.295,-19.927 4.253,1.461 6.658,-1.162 8.036,-8.065 1.343,-6.73 0.325,-10.153 -3.875,-11.974 -5.294,-2.293 -10.667,-4.24 -15.98,-6.449 -8.377,-3.482 -12.393,-15.81 -9.482,-28.941 3.03,-13.667 10.859,-20.719 19.337,-17.397 18.528,7.26 37.011,14.732 55.594,21.713 9.977,3.746 16.563,12.566 20.292,26.25 3.005,11.029 3.339,22.484 1.579,34.382 -4.555,30.776 -25.509,56.188 -46.391,44.714 -4.472,-2.459 -7.283,0.591 -8.673,7.712 -1.329,6.807 0.019,10.431 4.658,12.285 6.093,2.43 12.134,5.202 18.323,7.091 9.84,3.003 12.956,16.023 11.15,27.668 C 96.389,65.755 88.391,77.81 77.499,73.134 59.334,65.331 40.932,58.562 22.618,51.41 17.044,49.23 12.078,45.648 8.337,39.171 1.881,27.993 -0.522,14.708 0,0 m -11.536,7.315 c 0.408,4.744 0.593,9.571 1.263,14.217 3.588,24.964 12.797,42.047 30.412,48.377 17.756,6.383 35.313,13.789 52.953,20.771 14.078,5.57 26.885,-3.512 33.201,-23.577 5.324,-16.911 4.793,-30.032 -1.918,-47.449 2.59,-2.224 5.312,-4.173 7.743,-6.732 5.529,-5.827 8.887,-14.001 10.85,-23.251 7.301,-34.414 10.283,-69.975 21.614,-103.359 15.311,-45.115 -74.43,-76.517 -99.48,-67.072 -11.092,4.183 -21.462,11.518 -23.982,23.299 -3.211,15.016 -6.368,30.057 -9.466,45.116 -2.253,10.96 -4.878,21.853 -6.387,32.995 -1.079,7.972 -0.539,16.305 -0.819,24.475 -0.06,1.686 -0.21,3.783 -0.901,4.983 -7.357,12.751 -11.808,27.269 -13.782,43.382 -0.077,0.615 -0.395,1.184 -0.601,1.774 -0.234,4.016 -0.466,8.033 -0.7,12.051"
             style="fill:#a33b15;fill-opacity:1;fill-rule:evenodd;stroke:none"
             id="path132"
             inkscape:connector-curvature="0" /></g><g
           id="g134"
           transform="translate(150.3501,762.9585)"><path
             d="M 0,0 C -0.522,14.708 1.881,27.993 8.337,39.171 12.078,45.648 17.044,49.23 22.618,51.41 40.932,58.562 59.334,65.331 77.499,73.134 88.391,77.81 96.389,65.755 98.231,53.891 100.037,42.246 96.921,29.226 87.081,26.223 80.892,24.334 74.851,21.562 68.758,19.132 64.119,17.278 62.771,13.654 64.1,6.847 c 1.39,-7.121 4.201,-10.171 8.673,-7.712 20.882,11.474 41.836,-13.938 46.391,-44.714 1.76,-11.898 1.426,-23.353 -1.579,-34.382 -3.729,-13.684 -10.315,-22.504 -20.292,-26.25 -18.583,-6.981 -37.066,-14.453 -55.594,-21.713 -8.478,-3.322 -16.307,3.73 -19.337,17.397 -2.911,13.131 1.105,25.459 9.482,28.941 5.313,2.209 10.686,4.156 15.98,6.449 4.2,1.821 5.218,5.244 3.875,11.974 -1.378,6.903 -3.783,9.526 -8.036,8.065 -14.294,-4.9 -25.29,3.75 -34.295,19.927 C 3.67,-24.934 1.114,-12.82 0,0"
             style="fill:#f7931d;fill-opacity:1;fill-rule:evenodd;stroke:none"
             id="path136"
             inkscape:connector-curvature="0" /></g><g
           id="g138"
           transform="translate(697.9229,812.7046)"><path
             d="M 0,0 C -0.285,1.737 -0.453,3.246 -0.787,4.716 -3.592,17.009 -15.84,23.858 -26.535,19.034 -34.381,15.496 -38.449,8.947 -40.24,0.638 c -2.248,-10.435 -4.578,-20.852 -6.862,-31.28 -7.798,-35.577 -16.552,-70.952 -20.048,-107.388 -0.614,-6.396 1.072,-10.859 5.64,-14.581 3.719,-3.032 8.164,-4.123 12.834,-3.946 6.733,0.256 10.643,3.463 12.549,9.973 5.797,19.808 12.232,39.451 17.219,59.469 6.73,26.996 12.357,54.278 18.398,81.451 C -0.084,-3.757 -0.145,-1.739 0,0 m -2.693,-168.861 c 1.47,0.492 3.957,1.011 6.16,2.121 6.529,3.285 10.314,8.879 12.363,15.895 12.328,42.177 24.707,84.342 36.998,126.531 0.805,2.757 1.287,5.681 1.443,8.554 0.45,8.142 -4.296,16.465 -10.859,19.515 -7.9,3.674 -15.437,2.328 -22.07,-3.937 -3.729,-3.518 -5.668,-8.038 -7.154,-12.877 -13.958,-45.457 -26.297,-91.337 -35.7,-138.028 -1.117,-5.561 0.451,-9.252 3.992,-12.684 3.836,-3.715 8.622,-5.03 14.827,-5.09 m -302.698,91.277 c -1.194,22.951 -9.312,39.794 -22.971,51.527 -21.291,18.29 -51.309,15.394 -68.808,-6.655 -10.53,-13.268 -14.89,-28.557 -14.135,-45.477 0.907,-20.366 7.966,-37.822 23.552,-51.159 20.048,-17.152 48.729,-15.089 66.196,4.765 12.884,14.643 17.509,32.001 16.166,46.999 m 182.34,-66.891 c 8.278,0.473 15.518,2.772 22.487,7.469 15.501,10.449 24.693,25.293 27.898,43.76 2.285,13.148 3.781,26.449 5.303,39.719 0.562,4.904 1.24,10.192 0.066,14.834 -3.857,15.297 -14.963,18.244 -30.682,16.259 -9.144,-1.154 -13.761,-9.021 -15.345,-18.012 -1.287,-7.312 -1.959,-14.736 -2.887,-22.116 -0.68,-5.438 -2.959,-9.964 -7.26,-13.345 -6.508,-5.118 -15.05,-3.798 -19.873,3.02 -3.287,4.65 -3.746,9.867 -3.09,15.325 1.08,8.999 2.239,17.989 3.225,27 0.522,4.759 -1.062,8.95 -4.113,12.537 -4.405,5.185 -11.563,6.021 -16.957,1.961 -3.963,-2.983 -6.194,-7.061 -6.813,-12.038 -1.996,-16.027 -4.14,-32.039 -5.914,-48.089 -1.32,-11.967 -0.072,-23.688 4.627,-34.89 9.297,-22.162 27.697,-34.633 49.328,-33.394 m -124.251,86.184 c 0.192,8.77 -0.027,17.16 0.667,25.468 0.674,8.027 7.201,14.462 13.992,14.943 7.102,0.502 13.422,-4.325 15.44,-12.17 0.682,-2.662 0.621,-5.527 0.842,-8.304 0.566,-7.14 4.492,-12.665 10.201,-14.289 8.674,-2.468 17.502,4.153 17.844,14.141 0.355,10.446 0.33,20.96 -0.428,31.378 -1.055,14.494 -6.942,27.103 -16.584,37.826 -17.733,19.72 -46.116,21.798 -65.926,4.705 -12.245,-10.566 -19.931,-24.043 -21.724,-40.293 -1.234,-11.17 -1.105,-22.514 -1.267,-33.785 -0.187,-13.138 -0.534,-26.308 0.114,-39.417 0.745,-15.097 2.464,-30.15 3.887,-45.21 0.142,-1.478 0.806,-3.452 1.887,-4.193 2.957,-2.029 6.116,-4.015 9.482,-5.066 2.849,-0.891 6.098,-0.453 9.17,-0.588 10.694,-0.466 19.377,6.208 21.353,17.006 0.807,4.408 0.539,9.026 0.679,13.549 0.102,3.324 0.073,6.656 0.105,10.063 14.3,-0.078 28.14,0.427 41.896,-0.429 9.5,-0.59 16.979,6.397 17.395,16.754 0.316,7.959 -5.407,18.249 -16.34,17.369 -3.285,-0.264 -6.613,0.028 -9.924,0.077 -10.703,0.15 -21.408,0.304 -32.761,0.465 M -21.354,-231.27 c -1.99,0.469 -3.98,0.916 -5.958,1.413 -8.36,2.115 -14.393,7.252 -18.372,15.236 -9.57,-6.35 -19.375,-6.625 -29.146,-1.729 -9.992,5.002 -14.231,14.254 -16.4,25.11 -0.663,-0.418 -1.356,-0.711 -1.87,-1.201 -27.236,-25.983 -72.404,-21.489 -92.716,19.187 -2.877,5.762 -4.877,11.981 -7.362,18.187 -9.672,-3.978 -20.201,-1.413 -30.556,-1.828 -4.428,-0.178 -8.871,0.074 -13.344,0.13 -0.42,-4.575 -0.504,-9.003 -1.279,-13.297 -2.551,-14.127 -13.163,-26.137 -25.535,-27.063 -16.978,-1.271 -28.075,-1.992 -39.539,19.002 -0.425,-0.424 -0.889,-0.76 -1.19,-1.207 -21.454,-31.635 -66.65,-36.145 -94.327,-2.336 -10.413,12.722 -16.462,27.301 -18.148,43.658 -1.932,18.749 -3.576,37.533 -5.046,56.326 -1.589,20.33 3.01,39.009 15.153,55.496 22.77,30.918 62.711,33.672 89.355,5.987 4.498,-4.671 8.304,-10.037 12.48,-15.142 0.207,8.593 0.027,17.301 0.698,25.938 2.069,26.599 13.469,47.853 36.17,61.764 5.618,3.443 12.47,4.796 18.755,7.111 3.418,0.203 6.836,0.406 10.254,0.611 6.322,-1.357 13.045,-1.739 18.89,-4.243 23.366,-10.003 35.914,-29.126 41.369,-53.643 1.059,-4.773 1.348,-9.723 1.989,-14.557 1.179,1.269 2.261,2.445 3.357,3.612 5.719,6.089 12.529,9.216 20.912,7.747 11.877,-2.082 21.061,-14.095 20.332,-27.632 -0.552,-10.304 -2.17,-20.547 -3.275,-30.824 -0.475,-4.406 0.516,-6.113 3.633,-6.571 3.064,-0.452 4.607,1.118 5.252,5.347 0.07,0.46 0.066,0.929 0.134,1.39 1.303,8.717 1.871,17.635 4.084,26.104 3.889,14.857 16.477,24.601 30.088,24.327 3.514,-0.072 7.012,-0.805 10.524,-1.184 9.338,-1.014 16.068,-6.073 20.929,-14.013 1.02,-1.662 1.883,-3.422 2.995,-5.462 0.339,1.293 0.621,2.246 0.835,3.216 2.346,10.53 4.635,21.074 7.036,31.592 1.863,8.164 5.822,15.086 12.142,20.533 15.594,13.437 37.205,8.521 45.586,-10.461 1.375,-3.108 2.217,-6.46 3.315,-9.73 2.291,2.108 4.42,4.367 6.832,6.243 17.011,13.222 39.091,6.211 45.797,-14.48 0.566,-1.742 1.123,-3.487 1.681,-5.228 0.162,-2.791 0.324,-5.581 0.486,-8.369 -0.605,-3.048 -0.992,-6.162 -1.857,-9.13 -17.457,-59.821 -34.949,-119.632 -52.502,-179.423 -2.937,-9.998 -8.848,-17.76 -17.974,-22.683 -2.688,-1.448 -5.668,-2.327 -8.514,-3.465 -2.051,-0.121 -4.104,-0.244 -6.153,-0.366"
             style="fill:#a33b15;fill-opacity:1;fill-rule:evenodd;stroke:none"
             id="path140"
             inkscape:connector-curvature="0" /></g><g
           id="g142"
           transform="translate(450.6206,754.4136)"><path
             d="m 0,0 c 11.353,-0.161 22.058,-0.315 32.761,-0.465 3.311,-0.049 6.639,-0.341 9.924,-0.077 10.934,0.88 16.656,-9.41 16.34,-17.369 -0.416,-10.357 -7.895,-17.344 -17.395,-16.754 -13.755,0.856 -27.595,0.351 -41.896,0.429 -0.032,-3.407 -0.003,-6.739 -0.105,-10.063 -0.14,-4.523 0.128,-9.141 -0.678,-13.549 -1.976,-10.798 -10.66,-17.472 -21.353,-17.006 -3.073,0.135 -6.322,-0.303 -9.17,0.588 -3.367,1.051 -6.526,3.037 -9.483,5.066 -1.081,0.741 -1.745,2.715 -1.886,4.193 -1.424,15.06 -3.143,30.113 -3.888,45.21 -0.648,13.11 -0.3,26.279 -0.113,39.417 0.161,11.271 0.032,22.615 1.266,33.785 1.793,16.25 9.479,29.727 21.724,40.293 19.81,17.094 48.194,15.015 65.926,-4.705 C 51.617,78.27 57.503,65.661 58.558,51.167 59.316,40.749 59.341,30.235 58.986,19.789 58.644,9.801 49.816,3.18 41.142,5.648 35.433,7.272 31.507,12.797 30.941,19.937 30.72,22.714 30.781,25.579 30.099,28.241 28.082,36.086 21.761,40.913 14.66,40.411 7.869,39.93 1.341,33.495 0.667,25.468 -0.027,17.16 0.192,8.77 0,0"
             style="fill:#f7931d;fill-opacity:1;fill-rule:evenodd;stroke:none"
             id="path144"
             inkscape:connector-curvature="0" /></g><g
           id="g146"
           transform="translate(574.8721,668.23)"><path
             d="m 0,0 c -21.631,-1.239 -40.031,11.231 -49.328,33.394 -4.699,11.202 -5.947,22.922 -4.627,34.889 1.773,16.051 3.918,32.063 5.914,48.09 0.619,4.976 2.85,9.055 6.812,12.037 5.395,4.06 12.553,3.225 16.958,-1.961 3.05,-3.586 4.634,-7.778 4.113,-12.537 -0.987,-9.01 -2.145,-18 -3.225,-26.999 -0.656,-5.458 -0.197,-10.676 3.09,-15.325 4.822,-6.818 13.365,-8.139 19.873,-3.021 4.301,3.381 6.58,7.908 7.26,13.346 0.928,7.38 1.599,14.804 2.887,22.116 1.584,8.991 6.201,16.858 15.345,18.012 15.719,1.985 26.824,-0.962 30.682,-16.26 C 56.928,101.14 56.25,95.852 55.688,90.947 54.166,77.678 52.67,64.377 50.385,51.229 47.18,32.762 37.988,17.918 22.486,7.469 15.518,2.771 8.277,0.473 0,0"
             style="fill:#f7931d;fill-opacity:1;fill-rule:evenodd;stroke:none"
             id="path148"
             inkscape:connector-curvature="0" /></g><g
           id="g150"
           transform="translate(392.5317,735.1206)"><path
             d="m 0,0 c 1.343,-14.998 -3.282,-32.356 -16.166,-46.999 -17.467,-19.855 -46.148,-21.917 -66.196,-4.765 -15.586,13.337 -22.645,30.793 -23.552,51.159 -0.754,16.92 3.605,32.209 14.135,45.477 17.499,22.049 47.517,24.945 68.808,6.655 C -9.312,39.794 -1.194,22.951 0,0"
             style="fill:#f7931d;fill-opacity:1;fill-rule:evenodd;stroke:none"
             id="path152"
             inkscape:connector-curvature="0" /></g><g
           id="g154"
           transform="translate(354.5474,733.9453)"><path
             d="m 0,0 c 0.407,-4.551 -0.996,-9.817 -4.905,-14.261 -5.3,-6.024 -14.003,-6.65 -20.086,-1.445 -4.729,4.047 -6.871,9.343 -7.146,15.522 -0.229,5.135 1.094,9.773 4.289,13.799 5.309,6.691 14.418,7.57 20.878,2.02 C -2.826,12.074 -0.363,6.964 0,0"
             style="fill:#a33b15;fill-opacity:1;fill-rule:evenodd;stroke:none"
             id="path156"
             inkscape:connector-curvature="0" /></g><g
           id="g158"
           transform="translate(695.2295,643.8433)"><path
             d="m 0,0 c -6.205,0.061 -10.99,1.375 -14.826,5.09 -3.541,3.432 -5.11,7.123 -3.992,12.684 9.402,46.691 21.742,92.572 35.699,138.028 1.486,4.839 3.426,9.36 7.154,12.878 6.633,6.264 14.17,7.61 22.07,3.937 6.563,-3.051 11.309,-11.373 10.86,-19.516 -0.156,-2.873 -0.639,-5.796 -1.444,-8.554 C 43.23,102.358 30.852,60.193 18.523,18.017 16.475,11 12.689,5.406 6.16,2.121 3.957,1.012 1.471,0.492 0,0"
             style="fill:#f7931d;fill-opacity:1;fill-rule:evenodd;stroke:none"
             id="path160"
             inkscape:connector-curvature="0" /></g><g
           id="g162"
           transform="translate(697.9229,812.7046)"><path
             d="m 0,0 c -0.145,-1.739 -0.084,-3.757 -0.51,-5.664 -6.041,-27.173 -11.668,-54.455 -18.398,-81.451 -4.987,-20.018 -11.422,-39.661 -17.219,-59.469 -1.906,-6.51 -5.816,-9.717 -12.549,-9.973 -4.67,-0.177 -9.115,0.914 -12.834,3.946 -4.568,3.722 -6.254,8.185 -5.64,14.581 3.496,36.436 12.25,71.811 20.048,107.388 2.284,10.428 4.614,20.845 6.862,31.28 1.791,8.309 5.859,14.858 13.705,18.396 C -15.84,23.858 -3.592,17.009 -0.787,4.716 -0.453,3.246 -0.285,1.737 0,0"
             style="fill:#f7931d;fill-opacity:1;fill-rule:evenodd;stroke:none"
             id="path164"
             inkscape:connector-curvature="0" /></g></g></g></g></svg>