<?xml version="1.0" encoding="UTF-8" standalone="no"?>
<!-- Generator: Adobe Illustrator 16.0.0, SVG Export Plug-In . SVG Version: 6.00 Build 0)  -->

<svg
   xmlns:dc="http://purl.org/dc/elements/1.1/"
   xmlns:cc="http://creativecommons.org/ns#"
   xmlns:rdf="http://www.w3.org/1999/02/22-rdf-syntax-ns#"
   xmlns:svg="http://www.w3.org/2000/svg"
   xmlns="http://www.w3.org/2000/svg"
   xmlns:sodipodi="http://sodipodi.sourceforge.net/DTD/sodipodi-0.dtd"
   xmlns:inkscape="http://www.inkscape.org/namespaces/inkscape"
   version="1.1"
   id="Capa_1"
   x="0px"
   y="0px"
   width="491.582px"
   height="491.582px"
   viewBox="0 0 491.582 491.582"
   style="enable-background:new 0 0 491.582 491.582;"
   xml:space="preserve"
   inkscape:version="0.91 r13725"
   sodipodi:docname="pin_f92.svg"><metadata
     id="metadata45"><rdf:RDF><cc:Work
         rdf:about=""><dc:format>image/svg+xml</dc:format><dc:type
           rdf:resource="http://purl.org/dc/dcmitype/StillImage" /><dc:title></dc:title></cc:Work></rdf:RDF></metadata><defs
     id="defs43" /><sodipodi:namedview
     pagecolor="#ffffff"
     bordercolor="#666666"
     borderopacity="1"
     objecttolerance="10"
     gridtolerance="10"
     guidetolerance="10"
     inkscape:pageopacity="0"
     inkscape:pageshadow="2"
     inkscape:window-width="866"
     inkscape:window-height="493"
     id="namedview41"
     showgrid="false"
     inkscape:zoom="0.48008267"
     inkscape:cx="245.791"
     inkscape:cy="245.791"
     inkscape:window-x="0"
     inkscape:window-y="440"
     inkscape:window-maximized="0"
     inkscape:current-layer="Capa_1" /><g
     id="g3"
     style="fill:#f7921d;fill-opacity:1"><g
       id="g5"
       style="fill:#f7921d;fill-opacity:1"><path
         d="M245.791,0C153.799,0,78.957,74.841,78.957,166.833c0,36.967,21.764,93.187,68.493,176.926    c31.887,57.138,63.627,105.4,64.966,107.433l22.941,34.773c2.313,3.507,6.232,5.617,10.434,5.617s8.121-2.11,10.434-5.617    l22.94-34.771c1.326-2.01,32.835-49.855,64.967-107.435c46.729-83.735,68.493-139.955,68.493-176.926    C412.625,74.841,337.783,0,245.791,0z M322.302,331.576c-31.685,56.775-62.696,103.869-64.003,105.848l-12.508,18.959    l-12.504-18.954c-1.314-1.995-32.563-49.511-64.007-105.853c-43.345-77.676-65.323-133.104-65.323-164.743    C103.957,88.626,167.583,25,245.791,25s141.834,63.626,141.834,141.833C387.625,198.476,365.647,253.902,322.302,331.576z"
         id="path7"
         style="fill:#f7921d;fill-opacity:1" /><path
         d="M245.791,73.291c-51.005,0-92.5,41.496-92.5,92.5s41.495,92.5,92.5,92.5s92.5-41.496,92.5-92.5    S296.796,73.291,245.791,73.291z M245.791,233.291c-37.22,0-67.5-30.28-67.5-67.5s30.28-67.5,67.5-67.5    c37.221,0,67.5,30.28,67.5,67.5S283.012,233.291,245.791,233.291z"
         id="path9"
         style="fill:#f7921d;fill-opacity:1" /></g></g><g
     id="g11" /><g
     id="g13" /><g
     id="g15" /><g
     id="g17" /><g
     id="g19" /><g
     id="g21" /><g
     id="g23" /><g
     id="g25" /><g
     id="g27" /><g
     id="g29" /><g
     id="g31" /><g
     id="g33" /><g
     id="g35" /><g
     id="g37" /><g
     id="g39" /></svg>